<svg xmlns="http://www.w3.org/2000/svg" xmlns:xlink="http://www.w3.org/1999/xlink" width="20" height="23" viewBox="0 0 20 23"><defs><path id="dtdxa" d="M352 83.6c0 5.14-4.42 9.34-9.88 9.4a5.11 5.11 0 0 1-.24 0c-5.46-.06-9.88-4.26-9.88-9.4 0-.82.11-1.64.33-2.42l.4-1.43.89 1.22c0 .02.47.63 1.4 1.34a17.3 17.3 0 0 1 .52-4.49c1.08-4.12 3.72-6.74 7.65-7.57l1.16-.25-.32 1.08c-.73 2.55-.59 4.2-.33 5.15.27 1.01.8 1.71 1.45 1.93.85.27 1.76-.35 2.32-1.59l.49-1.07.74.93a7.23 7.23 0 0 1 1.45 6.76c.26-.19.46-.39.55-.5l1.18-1.44.1 1.81.02.53zm-10 8.05c1.84 0 3.34-1.41 3.34-3.15 0-.68-.23-1.34-.65-1.88-.52.35-1 .38-1.3.35-.75-.08-1.42-.61-1.8-1.43a3.38 3.38 0 0 1-.23-2.04c-1.19.6-2.71 1.96-2.71 5 0 1.74 1.5 3.15 3.35 3.15zm8.5-7.06c-.57.3-1.15.41-1.71.34l-1.11-.15.6-.89c.01 0 .54-.8.71-2a5.65 5.65 0 0 0-.81-3.75c-.33.44-.72.78-1.15 1.03-.74.42-1.58.52-2.35.26-1.12-.36-1.98-1.4-2.37-2.87-.35-1.3-.33-2.9.05-4.69-2.75.95-4.57 3.04-5.41 6.24-.74 2.8-.43 5.44-.43 5.46l.17 1.36-1.24-.7a11.1 11.1 0 0 1-1.98-1.4c-.02.26-.04.51-.04.77a8 8 0 0 0 4.34 7 4.27 4.27 0 0 1-.56-2.1c0-1.74.46-4.14 2.65-5.68a6.44 6.44 0 0 1 2.7-1.1l1.66-.2-1 1.26c-.62.8-.57 1.68-.3 2.23.18.4.45.6.63.62.24.03.47-.23.6-.38l.46-.6.59.5a4.4 4.4 0 0 1 1.59 3.35c0 .76-.2 1.48-.55 2.1a8.08 8.08 0 0 0 4.26-6.01z"/></defs><g><g transform="translate(-332 -70)"><use fill="#ff420e" xlink:href="#dtdxa"/></g></g></svg>