<svg xmlns="http://www.w3.org/2000/svg" xmlns:xlink="http://www.w3.org/1999/xlink" width="17" height="24" viewBox="0 0 17 24"><defs><path id="lx0za" d="M608.64 74.55c0 1.78-1.45 4.12-2.71 6.18-.41.67-.8 1.31-1.13 1.9l-3.29 5.97-3.3-5.96c-.33-.6-.72-1.24-1.13-1.91-1.26-2.06-2.7-4.4-2.7-6.18 0-1.72.8-3.27 2.09-4.4a7.65 7.65 0 0 1 5.04-1.82c1.97 0 3.74.7 5.04 1.83a5.81 5.81 0 0 1 2.09 4.39zm-10.09-2.15a3.98 3.98 0 0 0 0 5.72 4.26 4.26 0 0 0 5.9 0 3.99 3.99 0 0 0 0-5.72 4.26 4.26 0 0 0-5.9 0zm-3.06-3.18a7.17 7.17 0 0 0-2.49 5.36c0 2.12 1.53 4.68 2.87 6.9.4.69.8 1.34 1.1 1.92l3.91 7.25c.07.12.18.23.32.29.35.15.75.02.92-.29l3.9-7.25c.32-.58.7-1.23 1.12-1.91 1.33-2.24 2.86-4.79 2.86-6.9 0-2.1-.95-4-2.5-5.37a8.98 8.98 0 0 0-6-2.22c-2.34 0-4.47.85-6 2.22z"/></defs><g><g transform="translate(-593 -67)"><use fill="#0072c7" xlink:href="#lx0za"/></g></g></svg>