<svg xmlns="http://www.w3.org/2000/svg" xmlns:xlink="http://www.w3.org/1999/xlink" width="18" height="18" viewBox="0 0 18 18"><defs><path id="j58ua" d="M1055 81c0 .35.28.64.63.64h11.96l-2.33 2.36a.65.65 0 0 0 0 .9.62.62 0 0 0 .88 0l3.4-3.45a.65.65 0 0 0 0-.9l-3.4-3.45a.62.62 0 0 0-.88 0 .65.65 0 0 0 0 .9l2.33 2.37h-11.96a.63.63 0 0 0-.63.63z"/><path id="j58ub" d="M1069.4 90c1.99 0 3.6-1.7 3.6-3.78V75.78a3.7 3.7 0 0 0-3.6-3.78h-9.97c-2 0-3.61 1.7-3.61 3.78v2.15c0 .35.27.63.6.63.33 0 .6-.29.6-.63v-2.15a2.47 2.47 0 0 1 2.4-2.52h9.97c1.33 0 2.4 1.13 2.4 2.52v10.44a2.47 2.47 0 0 1-2.4 2.52h-9.96a2.47 2.47 0 0 1-2.4-2.52V84.1a.62.62 0 0 0-.6-.63c-.34 0-.61.28-.61.63v2.12a3.7 3.7 0 0 0 3.6 3.78h9.97z"/></defs><g><g transform="translate(-1055 -72)"><use fill="#fff" xlink:href="#j58ua"/></g><g transform="translate(-1055 -72)"><use fill="#fff" xlink:href="#j58ub"/></g></g></svg>