<svg xmlns="http://www.w3.org/2000/svg" xmlns:xlink="http://www.w3.org/1999/xlink" width="20" height="18" viewBox="0 0 20 18"><defs><path id="i1fba" d="M84 744H74v13h20v-13z"/><path id="i1fbc" d="M74.74 745.49h2.12l3.02 10.97c.09.32.38.54.72.54h9.28c.3 0 .56-.17.68-.45l3.38-7.8c.1-.23.07-.5-.06-.7a.73.73 0 0 0-.62-.34H83a.74.74 0 0 0 0 1.49h9.13l-2.74 6.31h-8.24l-3.02-10.97a.74.74 0 0 0-.71-.54h-2.68a.74.74 0 0 0 0 1.49z"/><path id="i1fbd" d="M79.5 762a1.5 1.5 0 1 0 0-3 1.5 1.5 0 0 0 0 3z"/><path id="i1fbe" d="M89.5 762h.1a1.5 1.5 0 1 0-1.6-1.4c.06.78.71 1.4 1.5 1.4z"/><clipPath id="i1fbb"><use xlink:href="#i1fba"/></clipPath></defs><g><g transform="translate(-74 -744)"><g><g/><g clip-path="url(#i1fbb)"><use fill="#ff420e" xlink:href="#i1fbc"/></g></g><g><use fill="#ff420e" xlink:href="#i1fbd"/></g><g><use fill="#ff420e" xlink:href="#i1fbe"/></g></g></g></svg>