<svg xmlns="http://www.w3.org/2000/svg" xmlns:xlink="http://www.w3.org/1999/xlink" width="20" height="20" viewBox="0 0 20 20"><defs><path id="35z0a" d="M473 360.04V380h12.93v-19.96z"/><path id="35z0c" d="M483 374.29c-.98 0-1.77-.78-1.77-1.73s.8-1.72 1.77-1.72c.98 0 1.78.77 1.78 1.72s-.8 1.73-1.78 1.73zm.58-4.52v-9.17a.57.57 0 0 0-.58-.56.57.57 0 0 0-.58.56v9.17a2.88 2.88 0 0 0-2.35 2.8 2.88 2.88 0 0 0 2.35 2.78v4.09c0 .3.26.56.58.56.32 0 .58-.25.58-.56v-4.09a2.88 2.88 0 0 0 2.35-2.79 2.87 2.87 0 0 0-2.35-2.8z"/><path id="35z0d" d="M475.93 369.58c-.98 0-1.77-.77-1.77-1.72s.8-1.73 1.77-1.73c.98 0 1.78.78 1.78 1.73s-.8 1.72-1.78 1.72zm.58-4.52v-4.46a.57.57 0 0 0-.58-.56.57.57 0 0 0-.58.56v4.46a2.88 2.88 0 0 0-2.35 2.8 2.88 2.88 0 0 0 2.35 2.79v8.79c0 .3.26.56.58.56.32 0 .58-.25.58-.56v-8.8a2.88 2.88 0 0 0 2.35-2.79 2.87 2.87 0 0 0-2.35-2.79z"/><path id="35z0e" d="M490.03 369.58c-.98 0-1.77-.77-1.77-1.72s.8-1.73 1.77-1.73c.98 0 1.78.78 1.78 1.73s-.8 1.72-1.78 1.72zm.58-4.52v-4.46a.57.57 0 0 0-.58-.56.57.57 0 0 0-.58.56v4.46a2.88 2.88 0 0 0-2.35 2.8 2.88 2.88 0 0 0 2.35 2.79v8.79c0 .31.26.56.58.56.32 0 .58-.25.58-.56v-8.8a2.88 2.88 0 0 0 2.35-2.79 2.87 2.87 0 0 0-2.35-2.79z"/><clipPath id="35z0b"><use xlink:href="#35z0a"/></clipPath></defs><g><g transform="translate(-473 -360)"><g><g/><g clip-path="url(#35z0b)"><use fill="#0072c7" xlink:href="#35z0c"/></g><g clip-path="url(#35z0b)"><use fill="#0072c7" xlink:href="#35z0d"/></g></g><g><use fill="#0072c7" xlink:href="#35z0e"/></g></g></g></svg>