<svg xmlns="http://www.w3.org/2000/svg" xmlns:xlink="http://www.w3.org/1999/xlink" width="23" height="23" viewBox="0 0 23 23"><defs><path id="qxhqa" d="M824.47 83.21c0 .93-.62 1.55-1.54 1.55s-1.53-.62-1.53-1.55v-3.1c0-.92.61-1.54 1.53-1.54s1.54.62 1.54 1.55zm-9.82 7.26c-.46 0-.76-.31-.76-.78 0-.47.3-.78.76-.78s.77.31.77.78c0 .47-.3.78-.77.78zm-7.05-7.26c0 .93-.61 1.55-1.53 1.55s-1.54-.62-1.54-1.55v-3.1c0-.92.62-1.54 1.54-1.54s1.53.62 1.53 1.55zm15.31-6.18A8.53 8.53 0 0 0 814.5 69a8.53 8.53 0 0 0-8.41 8.03h-.02A3.09 3.09 0 0 0 803 80.1v3.1c0 1.69 1.38 3.08 3.07 3.08a3.09 3.09 0 0 0 3.06-3.09v-3.09c0-1.13-.62-2.11-1.53-2.65a6.9 6.9 0 1 1 13.8 0 3.09 3.09 0 0 0-1.53 2.65v3.1c0 1.18.68 2.2 1.66 2.72-.84 1.05-2.5 2.69-4.74 2.94a2.36 2.36 0 0 0-2.14-1.5 2.37 2.37 0 0 0-2.3 2.31 2.37 2.37 0 0 0 2.3 2.32c1.1 0 1.9-.68 2.18-1.58 3.43-.32 5.64-3.08 6.41-4.16A3.08 3.08 0 0 0 826 83.2v-3.09c0-1.7-1.38-3.08-3.07-3.08h-.02z"/></defs><g><g transform="translate(-803 -69)"><use fill="#0072c7" xlink:href="#qxhqa"/></g></g></svg>